<svg width="849" height="714" viewBox="0 0 849 714" fill="none" xmlns="http://www.w3.org/2000/svg">
<g opacity="0.3">
<path d="M11.3636 360.227L23.8636 288.636C56.8182 288.636 81.0606 282.197 96.5909 269.318C112.121 256.25 121.97 235.795 126.136 207.955L132.955 163.636C139.205 122.727 150.568 91.0985 167.045 68.75C183.523 46.2121 203.504 30.1137 226.989 20.4546C250.473 10.7955 276.136 5.01893 303.977 3.125C332.008 1.04167 360.606 0 389.773 0L370.455 113.636C347.727 113.636 330.492 116.193 318.75 121.307C307.008 126.42 298.58 134.186 293.466 144.602C288.352 155.019 284.47 168.182 281.818 184.091L271.591 246.591C269.318 260.795 263.826 274.716 255.114 288.352C246.402 301.799 232.576 313.92 213.636 324.716C194.886 335.511 169.129 344.129 136.364 350.568C103.598 357.008 61.9318 360.227 11.3636 360.227ZM271.591 713.636C242.424 713.636 214.394 712.595 187.5 710.511C160.606 708.617 137.121 702.841 117.045 693.182C97.1591 683.523 82.6705 667.424 73.5795 644.886C64.4886 622.538 63.0682 590.909 69.3182 550L76.1364 505.682C80.4924 477.841 77.4621 457.481 67.0455 444.602C56.6288 431.534 34.6591 425 1.13636 425L12.5 353.409C63.0682 353.409 103.598 356.629 134.091 363.068C164.773 369.508 187.784 378.125 203.125 388.92C218.466 399.716 228.22 411.932 232.386 425.568C236.553 439.015 237.5 452.841 235.227 467.046L225 529.546C222.348 545.455 221.875 558.617 223.58 569.034C225.284 579.451 231.25 587.216 241.477 592.33C251.705 597.443 268.182 600 290.909 600L271.591 713.636ZM0 425L22.7273 288.636H147.727L125 425H0Z" fill="white"/>
<path d="M836.719 353.409L824.219 425C791.264 425 767.022 431.534 751.492 444.602C736.151 457.481 726.302 477.841 721.946 505.682L715.128 550C708.878 590.909 697.514 622.538 681.037 644.886C664.56 667.424 644.579 683.523 621.094 693.182C597.609 702.841 571.946 708.617 544.105 710.511C516.264 712.595 487.666 713.636 458.31 713.636L477.628 600C500.355 600 517.59 597.443 529.332 592.33C541.075 587.216 549.503 579.451 554.617 569.034C559.73 558.617 563.613 545.455 566.264 529.546L576.492 467.046C578.764 452.841 584.257 439.015 592.969 425.568C601.681 411.932 615.412 399.716 634.162 388.92C653.101 378.125 678.954 369.508 711.719 363.068C744.484 356.629 786.151 353.409 836.719 353.409ZM576.492 0C605.848 0 633.878 1.04167 660.582 3.125C687.476 5.01893 710.867 10.7955 730.753 20.4546C750.829 30.1137 765.412 46.2121 774.503 68.75C783.594 91.0985 785.014 122.727 778.764 163.636L771.946 207.955C767.779 235.795 770.81 256.25 781.037 269.318C791.454 282.197 813.423 288.636 846.946 288.636L835.582 360.227C785.014 360.227 744.389 357.008 713.707 350.568C683.215 344.129 660.298 335.511 644.957 324.716C629.617 313.92 619.863 301.799 615.696 288.352C611.529 274.716 610.582 260.795 612.855 246.591L623.082 184.091C625.734 168.182 626.207 155.019 624.503 144.602C622.798 134.186 616.832 126.42 606.605 121.307C596.378 116.193 579.901 113.636 557.173 113.636L576.492 0ZM848.082 288.636L825.355 425H700.355L723.082 288.636H848.082Z" fill="white"/>
</g>
</svg>
